<?xml version="1.0" encoding="utf-8"?>
<!-- Uploaded to: SVG Repo, www.svgrepo.com, Generator: SVG Repo Mixer Tools -->
<svg width="800px" height="800px" viewBox="0 0 24 24" fill="none" xmlns="http://www.w3.org/2000/svg">
<g id="style=linear">
<g id="filter-circle">
<path id="vector" d="M2 17.5H7" stroke="#000000" stroke-width="1.5" stroke-miterlimit="10" stroke-linecap="round" stroke-linejoin="round"/>
<path id="vector_2" d="M22 6.5H17" stroke="#000000" stroke-width="1.5" stroke-miterlimit="10" stroke-linecap="round" stroke-linejoin="round"/>
<path id="vector_3" d="M13 17.5H22" stroke="#000000" stroke-width="1.5" stroke-miterlimit="10" stroke-linecap="round" stroke-linejoin="round"/>
<path id="vector_4" d="M11 6.5H2" stroke="#000000" stroke-width="1.5" stroke-miterlimit="10" stroke-linecap="round" stroke-linejoin="round"/>
<path id="vector_5" d="M10 20.3999C8.34315 20.3999 7 19.0568 7 17.3999C7 15.743 8.34315 14.3999 10 14.3999C11.6569 14.3999 13 15.743 13 17.3999C13 19.0568 11.6569 20.3999 10 20.3999Z" stroke="#000000" stroke-width="1.5" stroke-miterlimit="10" stroke-linecap="round" stroke-linejoin="round"/>
<path id="vector_6" d="M14 9.3999C15.6569 9.3999 17 8.05676 17 6.3999C17 4.74305 15.6569 3.3999 14 3.3999C12.3431 3.3999 11 4.74305 11 6.3999C11 8.05676 12.3431 9.3999 14 9.3999Z" stroke="#000000" stroke-width="1.5" stroke-miterlimit="10" stroke-linecap="round" stroke-linejoin="round"/>
</g>
</g>
</svg>