<svg width="6" height="11" viewBox="0 0 6 11" fill="none" xmlns="http://www.w3.org/2000/svg">
<path id="Vector" d="M2.72052 10.6284C0.50664 6.54181 0.0957031 6.1224 0.0957031 4.62051C0.0957031 2.56324 1.40547 0.895508 3.02117 0.895508C4.63686 0.895508 5.94663 2.56324 5.94663 4.62051C5.94663 6.1224 5.5357 6.54181 3.32182 10.6284C3.17654 10.8957 2.86578 10.8956 2.72052 10.6284ZM3.02117 6.17259C3.69438 6.17259 4.24011 5.4777 4.24011 4.62051C4.24011 3.76331 3.69438 3.06842 3.02117 3.06842C2.34796 3.06842 1.80222 3.76331 1.80222 4.62051C1.80222 5.4777 2.34796 6.17259 3.02117 6.17259Z" fill="white"/>
</svg>
