<svg width="20" height="20" viewBox="0 0 20 20" fill="none" xmlns="http://www.w3.org/2000/svg">
<g id="Iconsax/Linear/searchnormal1" clip-path="url(#clip0_0_106)">
<path id="Vector" d="M18.3327 18.3307L16.666 16.6641M9.58268 17.4974C10.6223 17.4974 11.6518 17.2926 12.6123 16.8948C13.5728 16.4969 14.4455 15.9138 15.1806 15.1787C15.9157 14.4435 16.4989 13.5708 16.8967 12.6103C17.2946 11.6498 17.4993 10.6204 17.4993 9.58073C17.4993 8.5411 17.2946 7.51165 16.8967 6.55115C16.4989 5.59066 15.9157 4.71793 15.1806 3.9828C14.4455 3.24767 13.5728 2.66453 12.6123 2.26668C11.6518 1.86883 10.6223 1.66406 9.58268 1.66406C7.48305 1.66406 5.46942 2.49814 3.98475 3.9828C2.50009 5.46746 1.66602 7.4811 1.66602 9.58073C1.66602 11.6804 2.50009 13.694 3.98475 15.1787C5.46942 16.6633 7.48305 17.4974 9.58268 17.4974Z" stroke="#787878" stroke-width="1.5" stroke-linecap="round" stroke-linejoin="round"/>
</g>
<defs>
<clipPath id="clip0_0_106">
<rect width="20" height="20" fill="white"/>
</clipPath>
</defs>
</svg>
